<?xml version="1.0" standalone="no"?>
<!DOCTYPE svg PUBLIC "-//W3C//DTD SVG 20010904//EN"
 "http://www.w3.org/TR/2001/REC-SVG-20010904/DTD/svg10.dtd">
<svg version="1.0" xmlns="http://www.w3.org/2000/svg"
 width="2048.000000pt" height="2048.000000pt" viewBox="0 0 2048.000000 2048.000000"
 preserveAspectRatio="xMidYMid meet">

<g transform="translate(0.000000,2048.000000) scale(0.100000,-0.100000)"
fill="#000000" stroke="none">
<path d="M2230 13110 c0 -60 2 -110 5 -110 26 0 542 -83 547 -88 8 -9 28 -862
28 -1187 0 -132 3 -338 7 -457 l6 -218 774 0 773 0 0 388 c0 416 15 1248 26
1426 l6 108 132 -7 c72 -3 172 -15 222 -25 384 -76 718 -389 929 -870 106
-241 203 -592 244 -885 7 -44 14 -92 17 -107 l6 -28 800 0 800 0 -7 43 c-15
89 -75 307 -118 427 -316 897 -1010 1455 -2037 1639 -312 56 -255 54 -1762 58
l-1398 4 0 -111z"/>
<path d="M9477 12143 c-186 -593 -337 -1081 -337 -1085 0 -5 62 -8 138 -8
l137 0 94 315 c52 173 97 315 101 315 3 0 39 -111 78 -247 40 -137 81 -278 93
-315 l20 -68 789 0 c435 0 790 1 790 3 0 1 -153 488 -338 1082 l-339 1080
-444 3 -445 2 -337 -1077z"/>
<path d="M13300 13110 c0 -81 3 -110 13 -111 6 0 131 -19 277 -42 l265 -42 6
-190 c4 -104 9 -428 13 -720 4 -291 9 -626 12 -742 l6 -213 774 0 774 0 0 408
c0 422 15 1220 26 1401 l6 103 137 -5 c163 -6 256 -28 386 -91 170 -84 286
-203 380 -391 102 -204 138 -390 138 -695 -1 -269 -29 -450 -103 -651 l-29
-79 642 2 641 3 58 75 c76 98 161 270 194 395 26 93 28 115 28 305 1 174 -3
219 -21 300 -90 401 -330 673 -757 854 -276 118 -649 195 -1096 226 -86 6
-681 10 -1457 10 l-1313 0 0 -110z"/>
<path d="M1200 10451 c0 -6 5 -13 10 -16 6 -4 10 -97 10 -245 0 -148 -4 -241
-10 -245 -32 -20 6 -25 178 -25 227 0 275 11 338 74 98 98 98 294 0 392 -63
63 -111 74 -338 74 -111 0 -188 -4 -188 -9z m417 -107 c43 -32 63 -80 63 -154
0 -74 -20 -122 -63 -154 -25 -18 -46 -21 -158 -25 l-129 -3 0 174 c0 96 3 178
8 182 4 4 62 6 129 4 104 -3 126 -6 150 -24z"/>
<path d="M7930 10450 c0 -5 5 -10 10 -10 6 0 10 -7 10 -16 0 -22 -199 -444
-222 -470 -10 -11 -18 -23 -18 -27 0 -4 34 -7 75 -7 67 0 97 11 63 22 -10 4
-6 19 11 57 l25 52 125 -3 126 -3 25 -49 c18 -35 22 -50 13 -53 -36 -13 -3
-23 77 -23 90 0 104 6 74 31 -9 7 -68 116 -131 242 -81 163 -111 233 -104 240
22 22 9 27 -74 27 -50 0 -85 -4 -85 -10z m119 -217 c18 -43 36 -84 38 -90 4
-10 -16 -13 -81 -13 -47 0 -86 2 -86 5 0 10 85 175 90 175 3 0 21 -35 39 -77z"/>
<path d="M16570 10451 c0 -6 5 -11 10 -11 6 0 10 -90 10 -250 0 -160 -4 -250
-10 -250 -5 0 -10 -4 -10 -10 0 -14 404 -13 453 1 59 16 107 65 114 116 8 60
-11 99 -64 129 l-44 26 33 17 c42 23 70 77 62 120 -8 41 -50 83 -100 100 -51
18 -454 28 -454 12z m410 -94 c19 -10 25 -20 25 -47 0 -51 -26 -60 -172 -60
l-123 0 0 60 0 60 123 0 c78 0 131 -5 147 -13z m19 -221 c13 -12 21 -31 21
-51 0 -59 -24 -70 -176 -73 l-134 -4 0 77 0 77 134 -4 c115 -3 137 -6 155 -22z"/>
<path d="M6715 10380 c-4 -6 -82 -10 -201 -10 -178 0 -216 -5 -184 -25 15 -9
13 -388 -2 -403 -6 -6 -10 -14 -7 -16 2 -3 100 -6 217 -8 l212 -3 0 53 c0 39
-4 52 -15 52 -8 0 -15 -4 -15 -10 0 -6 -53 -10 -140 -10 l-140 0 0 56 0 56
105 -4 105 -4 0 48 c0 45 -12 69 -25 48 -3 -5 -46 -10 -96 -10 l-89 0 0 55 0
55 134 0 c79 0 137 -4 141 -10 15 -24 25 -6 25 45 0 51 -10 69 -25 45z"/>
<path d="M10045 10380 c-4 -6 -82 -10 -201 -10 -178 0 -216 -5 -184 -25 15 -9
13 -388 -2 -403 -6 -6 -10 -14 -7 -16 2 -3 100 -6 217 -8 l212 -3 0 53 c0 39
-4 52 -15 52 -8 0 -15 -4 -15 -10 0 -6 -53 -10 -140 -10 l-140 0 0 56 0 56
105 -4 105 -4 0 48 c0 45 -12 69 -25 48 -3 -5 -46 -10 -96 -10 l-89 0 0 55 0
55 134 0 c79 0 137 -4 141 -10 15 -24 25 -6 25 45 0 51 -10 69 -25 45z"/>
<path d="M11245 10380 c-4 -6 -82 -10 -201 -10 -178 0 -216 -5 -184 -25 15 -9
13 -388 -2 -403 -6 -6 -10 -14 -7 -16 2 -3 100 -6 217 -8 l212 -3 0 53 c0 39
-4 52 -15 52 -8 0 -15 -4 -15 -10 0 -6 -53 -10 -140 -10 l-140 0 0 56 0 56
105 -4 105 -4 0 48 c0 45 -12 69 -25 48 -3 -5 -46 -10 -96 -10 l-89 0 0 55 0
55 134 0 c79 0 137 -4 141 -10 15 -24 25 -6 25 45 0 51 -10 69 -25 45z"/>
<path d="M14625 10380 c-4 -6 -82 -10 -201 -10 -123 0 -194 -4 -194 -10 0 -5
5 -10 10 -10 16 0 13 -407 -2 -413 -34 -12 14 -16 205 -19 l207 -3 0 53 c0 28
-4 52 -10 52 -5 0 -10 -4 -10 -10 0 -6 -53 -10 -140 -10 l-140 0 0 56 0 56
105 -4 105 -4 0 48 c0 45 -12 69 -25 48 -3 -5 -46 -10 -96 -10 l-89 0 0 55 0
55 134 0 c79 0 137 -4 141 -10 15 -24 25 -6 25 45 0 51 -10 69 -25 45z"/>
<path d="M1950 10360 c0 -5 7 -10 15 -10 13 0 15 -29 15 -205 0 -176 -2 -205
-15 -205 -8 0 -15 -4 -15 -10 0 -6 33 -10 80 -10 47 0 80 4 80 10 0 6 -7 10
-15 10 -13 0 -15 29 -15 205 0 176 2 205 15 205 8 0 15 5 15 10 0 6 -33 10
-80 10 -47 0 -80 -4 -80 -10z"/>
<path d="M2380 10361 c-112 -34 -156 -126 -92 -191 32 -32 72 -45 187 -61 125
-17 159 -54 85 -92 -68 -35 -221 -4 -245 51 -5 12 -13 22 -16 22 -8 0 -54
-109 -48 -113 2 -2 33 -13 69 -26 181 -63 358 -21 376 91 8 47 -16 91 -61 112
-19 10 -85 26 -146 36 -62 10 -116 23 -121 28 -16 16 -5 45 22 60 54 28 221
-2 237 -44 9 -24 22 -16 45 29 29 53 29 60 -2 63 -14 1 -50 11 -80 23 -57 21
-160 27 -210 12z"/>
<path d="M2973 10356 c-110 -35 -168 -108 -168 -211 1 -135 104 -225 257 -225
47 0 163 32 183 51 5 5 19 9 32 9 30 0 29 4 -9 62 -36 52 -48 59 -48 27 0 -54
-188 -87 -247 -43 -41 30 -73 82 -73 118 0 40 28 94 61 118 55 41 185 32 236
-15 13 -11 24 -19 26 -16 2 2 16 22 30 44 27 40 34 61 18 50 -5 -3 -43 6 -85
20 -82 27 -148 31 -213 11z"/>
<path d="M3420 10361 c0 -5 7 -11 15 -15 12 -4 15 -32 15 -158 0 -179 8 -200
87 -239 41 -21 62 -24 148 -24 109 1 155 16 205 70 24 26 25 32 28 183 2 86 8
161 13 167 19 20 7 25 -61 25 -40 0 -70 -4 -70 -10 0 -5 7 -10 15 -10 13 0 15
-21 15 -132 0 -86 -5 -142 -13 -158 -37 -75 -210 -81 -261 -9 -13 19 -16 50
-16 161 0 85 4 138 10 138 6 0 10 5 10 10 0 6 -30 10 -70 10 -38 0 -70 -4 -70
-9z"/>
<path d="M4204 10361 c-109 -28 -159 -128 -96 -191 32 -32 72 -45 187 -61 125
-17 159 -54 85 -92 -68 -35 -221 -4 -245 51 -5 12 -13 22 -16 22 -6 0 -52
-112 -47 -114 27 -14 157 -49 198 -53 162 -16 276 68 239 175 -15 43 -89 77
-195 91 -108 14 -136 25 -132 53 9 63 192 65 255 2 13 -13 26 -24 28 -24 3 0
16 23 30 50 24 47 24 55 1 51 -5 -1 -32 8 -59 20 -55 23 -179 34 -233 20z"/>
<path d="M4680 10360 c0 -5 7 -10 15 -10 13 0 15 -29 15 -205 0 -176 -2 -205
-15 -205 -8 0 -15 -4 -15 -10 0 -6 33 -10 80 -10 47 0 80 4 80 10 0 6 -7 10
-15 10 -13 0 -15 29 -15 205 0 176 2 205 15 205 8 0 15 5 15 10 0 6 -33 10
-80 10 -47 0 -80 -4 -80 -10z"/>
<path d="M5137 10356 c-171 -48 -225 -258 -94 -373 50 -44 99 -58 202 -58 76
0 99 5 147 27 74 34 110 86 116 168 11 147 -80 237 -247 246 -46 2 -95 -1
-124 -10z m191 -87 c53 -26 82 -70 82 -124 0 -54 -29 -98 -82 -124 -117 -56
-258 12 -258 125 0 112 141 179 258 123z"/>
<path d="M5640 10360 c0 -5 5 -10 10 -10 6 0 10 -75 10 -205 0 -130 -4 -205
-10 -205 -5 0 -10 -4 -10 -10 0 -6 28 -10 65 -10 36 0 65 4 65 9 0 5 -5 11
-10 13 -7 2 -10 56 -8 152 l3 148 137 -146 c90 -96 135 -151 132 -161 -5 -12
6 -15 65 -15 41 0 71 4 71 10 0 6 -4 10 -10 10 -6 0 -10 75 -10 205 0 130 4
205 10 205 6 0 10 5 10 10 0 6 -28 10 -65 10 -37 0 -65 -4 -65 -10 0 -5 5 -10
10 -10 6 0 10 -54 10 -142 l-1 -143 -129 135 c-71 74 -129 143 -130 153 0 15
-10 17 -75 17 -43 0 -75 -4 -75 -10z"/>
<path d="M6990 10361 c-78 -24 -120 -69 -120 -128 0 -68 49 -97 202 -123 112
-19 146 -35 135 -65 -26 -67 -250 -49 -282 23 -5 12 -13 22 -16 22 -8 0 -54
-109 -48 -113 2 -2 36 -14 74 -27 87 -31 240 -35 290 -8 101 55 112 169 20
212 -19 10 -85 26 -146 36 -62 10 -116 23 -121 28 -16 16 -5 46 22 59 54 28
207 3 233 -37 6 -11 15 -20 18 -20 11 0 61 91 55 98 -3 3 -16 7 -29 8 -12 1
-47 11 -77 23 -57 21 -160 27 -210 12z"/>
<path d="M8460 10360 c0 -5 5 -10 10 -10 16 0 13 -407 -2 -413 -34 -12 15 -16
215 -19 l217 -3 0 53 c0 48 -10 66 -25 42 -4 -6 -65 -10 -151 -10 l-144 0 0
170 c0 142 2 172 15 176 35 14 10 24 -60 24 -43 0 -75 -4 -75 -10z"/>
<path d="M9020 10361 c0 -6 5 -13 10 -16 6 -4 10 -82 10 -200 0 -118 -4 -196
-10 -200 -26 -16 -4 -25 60 -25 40 0 70 4 70 10 0 6 -4 10 -10 10 -6 0 -10 33
-10 80 l0 80 69 0 68 0 47 -71 c32 -48 45 -76 41 -90 -6 -18 -1 -19 74 -19 83
0 96 6 61 27 -18 12 -125 162 -118 167 1 1 18 8 36 16 50 19 72 54 72 112 0
41 -5 54 -28 78 -16 15 -46 33 -68 39 -48 13 -374 15 -374 2z m343 -80 c27
-11 41 -39 32 -63 -11 -27 -54 -38 -155 -38 l-100 0 0 55 0 55 99 0 c55 0 111
-4 124 -9z"/>
<path d="M10210 10360 c0 -5 5 -10 10 -10 6 0 10 -75 10 -205 0 -130 -4 -205
-10 -205 -5 0 -10 -4 -10 -10 0 -14 314 -13 365 1 58 16 119 83 135 148 30
125 -28 243 -139 280 -43 14 -361 15 -361 1z m338 -81 c40 -14 62 -48 69 -108
7 -58 -9 -110 -43 -142 -23 -21 -36 -24 -135 -27 l-109 -4 0 146 0 146 94 0
c51 0 107 -5 124 -11z"/>
<path d="M11400 10360 c0 -5 5 -10 10 -10 6 0 10 -75 10 -205 0 -130 -4 -205
-10 -205 -5 0 -10 -4 -10 -10 0 -14 314 -13 365 1 58 16 119 83 135 148 30
125 -28 243 -139 280 -43 14 -361 15 -361 1z m338 -81 c40 -14 62 -48 69 -108
7 -58 -9 -110 -43 -142 -23 -21 -36 -24 -135 -27 l-109 -4 0 146 0 146 94 0
c51 0 107 -5 124 -11z"/>
<path d="M12152 10351 c-102 -35 -159 -120 -150 -224 7 -82 45 -139 115 -174
52 -25 68 -28 158 -28 88 0 107 3 150 26 74 37 108 92 113 178 5 82 -12 124
-68 175 -71 64 -210 84 -318 47z m223 -91 c86 -53 87 -176 2 -229 -115 -71
-277 -5 -277 114 0 116 163 184 275 115z"/>
<path d="M12670 10361 c0 -6 5 -13 10 -16 6 -4 10 -82 10 -200 0 -118 -4 -196
-10 -200 -26 -16 -4 -25 60 -25 40 0 70 4 70 10 0 6 -4 10 -10 10 -6 0 -10 33
-10 80 l0 80 69 0 68 0 47 -71 c32 -48 45 -76 41 -90 -6 -18 -1 -19 74 -19 83
0 96 6 61 27 -18 12 -125 162 -118 167 1 1 18 8 36 16 50 19 72 54 72 112 0
41 -5 54 -28 78 -16 15 -46 33 -68 39 -48 13 -374 15 -374 2z m343 -80 c27
-11 41 -39 32 -63 -11 -27 -54 -38 -155 -38 l-100 0 0 55 0 55 99 0 c55 0 111
-4 124 -9z"/>
<path d="M13590 10360 c0 -5 5 -10 10 -10 6 0 10 -75 10 -205 0 -130 -4 -205
-10 -205 -5 0 -10 -4 -10 -10 0 -14 314 -13 365 1 62 17 120 84 135 154 26
127 -29 237 -139 274 -43 14 -361 15 -361 1z m346 -85 c78 -32 87 -185 14
-250 -18 -17 -40 -20 -131 -23 l-109 -4 0 146 0 146 95 0 c61 0 108 -5 131
-15z"/>
<path d="M15110 10360 c0 -5 5 -10 10 -10 16 0 13 -407 -2 -413 -34 -12 15
-16 215 -19 l217 -3 0 53 c0 28 -4 52 -10 52 -5 0 -10 -4 -10 -10 0 -6 -57
-10 -150 -10 l-150 0 0 167 c0 141 3 169 17 185 15 17 13 18 -60 18 -45 0 -77
-4 -77 -10z"/>
<path d="M15805 10349 c5 -15 -17 -74 -76 -203 -45 -99 -88 -188 -96 -197 -22
-26 -16 -29 52 -29 36 0 65 4 65 9 0 5 -5 11 -11 13 -8 3 -4 18 10 46 l21 42
110 0 109 0 17 -31 c9 -18 13 -41 10 -55 -6 -24 -5 -24 64 -24 73 0 79 3 56
29 -29 35 -187 384 -181 402 6 18 0 19 -75 19 -78 0 -81 -1 -75 -21z m142
-235 c-3 -3 -36 -4 -74 -2 l-70 3 35 85 36 85 39 -83 c21 -46 37 -86 34 -88z"/>
<path d="M17310 10360 c0 -5 7 -10 15 -10 13 0 15 -29 15 -205 0 -176 -2 -205
-15 -205 -8 0 -15 -4 -15 -10 0 -6 33 -10 80 -10 47 0 80 4 80 10 0 6 -7 10
-15 10 -13 0 -15 29 -15 205 0 176 2 205 15 205 8 0 15 5 15 10 0 6 -33 10
-80 10 -47 0 -80 -4 -80 -10z"/>
<path d="M17630 10361 c0 -5 7 -11 15 -15 13 -4 15 -36 15 -201 0 -165 -2
-197 -15 -201 -8 -4 -15 -10 -15 -15 0 -12 347 -11 392 1 20 6 49 25 63 42 38
45 31 110 -15 151 l-32 29 28 29 c23 24 29 40 29 74 0 49 -22 80 -72 101 -37
16 -393 20 -393 5z m351 -81 c12 -7 19 -21 19 -40 0 -42 -23 -50 -144 -50
l-106 0 0 50 0 50 106 0 c58 0 114 -5 125 -10z m7 -186 c28 -20 30 -69 3 -84
-11 -5 -69 -10 -130 -10 l-111 0 0 55 0 55 108 0 c81 0 113 -4 130 -16z"/>
<path d="M18270 10360 c0 -5 5 -10 10 -10 16 0 13 -407 -2 -413 -34 -12 15
-16 215 -19 l217 -3 0 53 c0 28 -4 52 -10 52 -5 0 -10 -4 -10 -10 0 -6 -57
-10 -150 -10 l-150 0 0 169 c0 103 4 172 10 176 26 16 4 25 -60 25 -40 0 -70
-4 -70 -10z"/>
<path d="M18850 10360 c0 -5 7 -10 15 -10 13 0 15 -29 15 -205 0 -176 -2 -205
-15 -205 -8 0 -15 -4 -15 -10 0 -6 33 -10 80 -10 47 0 80 4 80 10 0 6 -7 10
-15 10 -13 0 -15 29 -15 205 0 176 2 205 15 205 8 0 15 5 15 10 0 6 -33 10
-80 10 -47 0 -80 -4 -80 -10z"/>
<path d="M19305 10349 c5 -15 -17 -74 -76 -203 -45 -99 -88 -188 -96 -197 -22
-26 -16 -29 52 -29 36 0 65 4 65 9 0 5 -5 11 -11 13 -8 3 -4 18 10 46 l21 42
110 0 109 0 17 -31 c9 -18 13 -41 10 -55 -6 -24 -5 -24 64 -24 73 0 79 3 56
29 -29 35 -187 384 -181 402 6 18 0 19 -75 19 -78 0 -81 -1 -75 -21z m142
-235 c-3 -3 -36 -4 -74 -2 l-70 3 35 85 36 85 39 -83 c21 -46 37 -86 34 -88z"/>
<path d="M2810 9124 c0 -298 -16 -1088 -28 -1414 l-7 -174 -270 -43 c-148 -23
-271 -42 -272 -42 -2 -1 -3 -50 -3 -111 l0 -110 1293 0 c808 0 1343 4 1428 10
1197 94 2036 674 2432 1680 55 140 147 450 147 496 0 2 -355 4 -790 4 l-790 0
-4 -22 c-3 -13 -10 -59 -16 -103 -20 -139 -70 -373 -111 -515 -115 -401 -279
-715 -486 -930 -241 -251 -488 -360 -819 -360 l-112 0 -6 123 c-11 212 -26
1016 -26 1420 l0 387 -780 0 -780 0 0 -296z"/>
<path d="M8331 8478 c-162 -519 -295 -944 -296 -945 0 -1 -111 -18 -245 -37
-135 -20 -255 -39 -267 -41 -22 -5 -23 -9 -23 -115 l0 -110 740 0 740 0 0 110
c0 106 -1 110 -22 115 -13 2 -151 21 -308 41 -157 20 -287 38 -288 40 -3 2
347 1178 444 1492 l35 112 759 0 759 0 11 -37 c6 -21 111 -380 234 -798 l222
-760 -25 -7 c-14 -5 -141 -24 -281 -43 -140 -20 -265 -38 -277 -40 -22 -5 -23
-9 -23 -115 l0 -110 1400 0 1400 0 0 109 c0 96 -2 110 -17 115 -10 3 -130 26
-268 52 -137 25 -253 49 -257 53 -4 3 -137 422 -296 931 l-289 925 -807 3
c-535 1 -806 -1 -806 -8 0 -7 -231 -10 -680 -10 -447 0 -680 3 -680 10 0 6
-56 10 -148 10 l-147 0 -294 -942z"/>
<path d="M13880 9140 c0 -284 -16 -1085 -28 -1420 l-7 -184 -270 -42 c-148
-23 -271 -43 -272 -43 -2 -1 -3 -50 -3 -111 l0 -110 1233 0 c732 0 1299 4
1397 10 1121 70 1864 414 2164 1000 103 201 148 396 149 645 1 197 -31 357
-99 498 l-18 37 -744 0 -744 0 5 -22 c34 -139 57 -357 57 -539 0 -764 -346
-1257 -947 -1353 -55 -9 -141 -16 -191 -16 l-90 0 -6 123 c-11 208 -26 1023
-26 1425 l0 382 -780 0 -780 0 0 -280z"/>
<path d="M13237 6028 l-46 -73 41 -3 c40 -3 45 0 117 72 l76 76 -71 0 -70 0
-47 -72z"/>
<path d="M7515 5930 c-4 -6 -98 -10 -251 -10 -224 0 -267 -5 -234 -25 6 -4 10
-97 10 -245 0 -148 -4 -241 -10 -245 -33 -20 10 -25 239 -25 156 0 252 -4 256
-10 16 -25 25 -5 25 54 0 68 -9 86 -30 61 -10 -12 -45 -15 -191 -15 l-179 0 0
70 0 70 114 0 c106 0 115 -1 129 -22 15 -22 16 -18 16 60 1 76 -9 104 -23 67
-4 -12 -27 -15 -121 -15 l-115 0 0 65 0 65 179 0 c109 0 182 -4 186 -10 16
-25 25 -5 25 55 0 60 -9 80 -25 55z"/>
<path d="M8935 5930 c-4 -6 -98 -10 -251 -10 -224 0 -267 -5 -234 -25 6 -4 10
-97 10 -245 0 -148 -4 -241 -10 -245 -33 -20 10 -25 239 -25 156 0 252 -4 256
-10 16 -25 25 -5 25 54 0 68 -9 86 -30 61 -10 -12 -45 -15 -191 -15 l-179 0 0
70 0 70 114 0 c106 0 115 -1 129 -22 15 -22 16 -18 16 60 1 76 -9 104 -23 67
-4 -12 -27 -15 -121 -15 l-115 0 0 65 0 65 179 0 c109 0 182 -4 186 -10 16
-25 25 -5 25 55 0 60 -9 80 -25 55z"/>
<path d="M12115 5930 c-4 -6 -98 -10 -251 -10 -224 0 -267 -5 -234 -25 6 -4
10 -97 10 -245 0 -148 -4 -241 -10 -245 -33 -20 10 -25 239 -25 156 0 252 -4
256 -10 16 -25 25 -5 25 54 0 68 -9 86 -30 61 -10 -12 -45 -15 -191 -15 l-179
0 0 70 0 70 114 0 c106 0 115 -1 129 -22 15 -22 16 -18 16 67 0 85 -1 89 -16
68 -14 -22 -23 -23 -129 -23 l-114 0 0 65 0 65 179 0 c109 0 182 -4 186 -10
16 -25 25 -5 25 55 0 60 -9 80 -25 55z"/>
<path d="M6230 5911 c0 -6 5 -13 10 -16 6 -4 10 -97 10 -245 0 -148 -4 -241
-10 -245 -26 -16 -3 -25 65 -25 68 0 91 9 65 25 -6 3 -10 50 -10 106 l0 99
165 0 165 0 0 -105 c0 -63 -4 -105 -10 -105 -5 0 -10 -4 -10 -10 0 -6 34 -10
82 -10 64 0 79 3 70 12 -17 17 -17 499 0 516 9 9 -6 12 -70 12 -48 0 -82 -4
-82 -10 0 -5 5 -10 10 -10 6 0 10 -40 10 -100 l0 -100 -165 0 -165 0 0 94 c0
53 4 98 10 101 26 16 3 25 -65 25 -41 0 -75 -4 -75 -9z"/>
<path d="M7703 5907 c15 -13 17 -38 17 -257 0 -220 -2 -244 -17 -256 -15 -11
16 -13 197 -14 123 0 232 5 253 11 59 16 107 65 114 116 8 60 -11 99 -64 129
l-44 26 33 17 c18 10 41 33 51 52 32 61 5 124 -71 161 -44 22 -61 23 -267 26
-189 2 -218 0 -202 -11z m407 -90 c19 -10 25 -20 25 -47 0 -51 -26 -60 -172
-60 l-123 0 0 60 0 60 123 0 c78 0 131 -5 147 -13z m19 -221 c13 -12 21 -31
21 -51 0 -59 -24 -70 -176 -73 l-134 -4 0 77 0 77 134 -4 c115 -3 137 -6 155
-22z"/>
<path d="M9110 5910 c0 -5 7 -10 15 -10 13 0 15 -34 15 -250 0 -216 -2 -250
-15 -250 -8 0 -15 -4 -15 -10 0 -6 37 -10 90 -10 53 0 90 4 90 10 0 6 -7 10
-15 10 -12 0 -15 18 -15 100 l0 100 73 0 72 -1 63 -90 c62 -89 71 -109 52
-109 -5 0 -10 -4 -10 -10 0 -6 38 -10 95 -10 57 0 95 4 95 10 0 6 -6 10 -13
10 -7 0 -46 47 -86 105 -39 58 -66 105 -60 105 7 0 33 10 57 21 83 40 106 157
46 229 -42 50 -99 60 -331 60 -129 0 -203 -4 -203 -10z m405 -94 c37 -16 52
-48 40 -86 -11 -36 -63 -50 -185 -50 l-110 0 0 75 0 75 110 0 c74 0 122 -5
145 -14z"/>
<path d="M10090 5911 c0 -5 9 -12 19 -16 11 -3 65 -70 120 -147 l101 -141 0
-104 c0 -62 -4 -103 -10 -103 -5 0 -10 -4 -10 -10 0 -6 36 -10 87 -10 83 0 85
1 70 18 -13 14 -17 39 -17 109 l0 90 103 147 c56 80 110 149 120 152 42 13 10
24 -73 24 -53 0 -90 -4 -90 -10 0 -5 7 -10 15 -10 8 0 15 -4 15 -8 0 -10 -128
-192 -135 -192 -2 0 -31 39 -64 87 -59 83 -72 113 -51 113 6 0 10 5 10 10 0 6
-42 10 -105 10 -58 0 -105 -4 -105 -9z"/>
<path d="M11280 5912 c0 -4 9 -13 20 -20 19 -11 20 -23 20 -186 0 -96 -4 -186
-9 -199 -11 -27 -56 -47 -107 -47 -45 0 -112 28 -125 51 -15 29 -24 23 -47
-34 -26 -62 -28 -81 -7 -73 9 3 43 -2 78 -10 74 -19 198 -14 244 10 17 8 42
29 57 46 l26 32 0 189 c0 190 6 229 35 229 8 0 15 5 15 10 0 6 -40 10 -100 10
-55 0 -100 -3 -100 -8z"/>
<path d="M12439 5906 c-92 -25 -139 -79 -139 -160 0 -36 6 -52 30 -80 40 -45
69 -54 214 -65 129 -11 170 -26 164 -64 -4 -30 -59 -58 -127 -64 -73 -7 -192
26 -215 59 -19 26 -19 26 -51 -45 -23 -54 -23 -62 -1 -58 5 1 32 -8 60 -20
112 -48 318 -33 396 30 66 53 76 138 24 201 -31 37 -95 56 -214 65 -104 8
-147 20 -161 47 -21 39 45 78 132 78 57 0 140 -29 172 -61 16 -17 30 -29 31
-27 8 12 66 119 66 122 0 2 -12 6 -27 9 -16 2 -64 14 -107 26 -88 23 -177 26
-247 7z"/>
<path d="M12970 5914 c0 -3 7 -12 15 -20 12 -13 15 -49 15 -200 0 -202 4 -220
59 -267 38 -31 108 -47 211 -47 103 0 173 16 211 47 57 48 62 70 67 281 3 105
9 192 13 192 5 0 9 5 9 10 0 6 -33 10 -80 10 -74 0 -101 -10 -65 -24 12 -4 15
-32 15 -166 0 -237 -11 -254 -165 -255 -100 0 -138 15 -155 61 -6 14 -10 99
-10 190 0 137 3 166 15 170 8 4 12 10 9 15 -6 10 -164 13 -164 3z"/>
<path d="M13859 5906 c-92 -25 -139 -79 -139 -160 0 -36 6 -52 30 -80 40 -45
69 -54 214 -65 129 -11 170 -26 164 -64 -4 -30 -59 -58 -127 -64 -73 -7 -192
26 -215 59 -19 26 -19 26 -51 -45 -23 -54 -23 -62 -1 -58 5 1 32 -8 60 -20
112 -48 318 -33 396 30 66 53 76 138 24 201 -31 37 -95 56 -214 65 -104 8
-147 20 -161 47 -21 39 45 78 132 78 57 0 140 -29 172 -61 16 -17 30 -29 31
-27 8 12 66 119 66 122 0 2 -12 6 -27 9 -16 2 -64 14 -107 26 -88 23 -177 26
-247 7z"/>
</g>
</svg>
